<?xml version="1.0" encoding="UTF-8"?>
<svg width="153px" height="34px" viewBox="0 0 153 34" version="1.1" xmlns="http://www.w3.org/2000/svg" xmlns:xlink="http://www.w3.org/1999/xlink">
    <!-- Generator: sketchtool 52.5 (67469) - http://www.bohemiancoding.com/sketch -->
    <title>613F47F3-588C-48E9-AEF6-6054B8EA62D0</title>
    <desc>Created with sketchtool.</desc>
    <g id="Page-1" stroke="none" stroke-width="1" fill="none" fill-rule="evenodd">
        <g id="[Colaborador]-Dashboard" transform="translate(-30.000000, -16.000000)">
            <g id="Group" transform="translate(30.000000, 16.000000)">
                <text id="helpdesk" font-family="RobotoSlab-Regular, Roboto Slab" font-size="20" font-weight="normal" letter-spacing="0.8403357">
                    <tspan x="60" y="23" fill="#BBD147">help</tspan>
                    <tspan x="105.333999" y="23" fill="#FFFFFF">desk</tspan>
                </text>
                <g id="chat-(2)" transform="translate(0.000000, -0.000000)" fill="#BBD147">
                    <path d="M22.0706649,24.5809062 C21.6251582,24.5809062 21.1850509,24.5429062 20.7503432,24.4668043 L20.4080375,24.4260536 L19.5930241,24.3038016 C16.5478284,23.8765308 13.6856032,22.5965523 11.3369383,20.6117909 L10.953882,20.2450349 C8.98959786,18.5645791 7.60855764,16.3047507 7.00921716,13.7901287 C6.89440214,13.3320912 6.81269705,12.866311 6.76471314,12.3964558 C2.68964611,13.9368311 0.000101876676,17.1887346 0.000101876676,20.742193 C-0.0161983914,23.3583861 1.47527614,25.909378 4.0751689,27.6779571 C4.29980697,27.8297534 4.43418231,28.0833244 4.4337748,28.3544182 L4.4337748,33.6846059 L8.50884182,29.9436944 C8.69731367,29.7690777 8.9570992,29.6935871 9.20975335,29.739941 C10.1238928,29.9080375 11.051378,29.9925952 11.9807989,29.9925952 C16.667126,29.9925952 20.9459464,27.8165094 22.8856783,24.5809062 L22.0706649,24.5809062 Z" id="Path"></path>
                    <path d="M23.1627828,0.000101876676 C15.0044987,0.000101876676 8.37843968,5.1509866 8.37843968,11.4836408 C8.37843968,17.8162949 15.0207989,22.9671796 23.1790831,22.9671796 C24.3217319,22.9669759 25.4619357,22.8632654 26.5858391,22.6574745 L26.7325416,22.6574745 C26.9373137,22.6559464 27.1351582,22.7316408 27.2867507,22.869378 L32.5680375,27.7024075 L32.5680375,20.7829437 C32.56763,20.5118499 32.7020054,20.2582788 32.9266434,20.1064826 C36.0888954,17.9222466 37.9634263,14.7762949 37.9634263,11.4836408 C37.9634263,5.1509866 31.321067,0.000101876676 23.1627828,0.000101876676 Z" id="Path"></path>
                </g>
            </g>
        </g>
    </g>
</svg>